<?xml version="1.0" encoding="UTF-8" standalone="no"?>
<svg
   xmlns="http://www.w3.org/2000/svg"
   version="1.1"
   viewBox="0 0 244.3766 345.81284">
  <g
     transform="translate(-774.51627,-407.76366)"
     id="layer1">
    <path
       id="a"
       d="m 823.14806,416.97623 7.3236,-8.71257 72.22591,0 -3.53553,30.80966 -57.70497,0 z"
       style="fill:#000000;fill-rule:evenodd;" />
    <path
       id="h"
       d="m 819.23372,421.14311 18.05647,19.69797 -13.25825,114.52605 -19.57171,10.98541 -11.99556,0 16.16244,-133.0876 z"
       style="fill:#000000;fill-rule:evenodd;" />
    <path
       id="g"
       d="m 791.20198,576.32779 11.11168,0 17.67767,11.49049 -14.2684,113.38962 -22.34963,20.70813 -8.33376,-9.21764 z"
       style="fill:#000000;fill-rule:evenodd;" />
    <path
       id="f"
       d="m 787.54018,725.19903 21.59201,-20.58186 58.58885,0 -4.04061,30.68338 -67.04888,0.25254 z"
       style="fill:#000000;fill-rule:evenodd;" />
    <path
       id="e"
       d="m 869.4888,734.92174 3.40927,-30.1783 55.55839,0 19.69797,21.08693 -8.9651,9.47018 z"
       style="fill:#000000;fill-rule:evenodd;" />
    <path
       id="s"
       d="m 856.10428,699.94521 30.43085,0.37881 12.75317,-105.3084 -30.55711,0 z"
       style="fill:#000000;fill-rule:evenodd;" />
    <path
       id="t"
       d="m 815.44564,700.19775 8.08122,0 32.32489,-65.28111 4.54568,-40.27983 -7.70241,0 -32.95623,66.67007 z"
       style="fill:#000000;fill-rule:evenodd;" />
    <path
       id="r"
       d="m 903.96026,594.88935 8.7757,0 19.82424,64.64976 -3.72493,40.59551 -8.83884,0 -18.30901,-62.25065 z"
       style="fill:#000000;fill-rule:evenodd;" />
    <path
       id="d"
       d="m 932.11826,701.83925 19.06663,20.01365 10.4172,-10.29093 15.84677,-133.02447 -13.00572,0 -18.11961,13.7002 z"
       style="fill:#000000;fill-rule:evenodd;" />
    <path
       id="p"
       d="m 891.08082,557.57684 54.4851,0 19.12976,14.45781 -18.62468,14.4578 -58.92814,0 z"
       style="fill:#000000;fill-rule:evenodd;" />
    <path
       id="u"
       d="m 885,557.63004 -56.96428,0 -22.90179,14.375 23.30357,13.75 53.57143,0 z"
       style="fill:#000000;fill-rule:evenodd;" />
    <path
       id="c"
       d="m 950.80357,554.59432 13.83929,10 14.77679,0 16.47321,-133.66071 -8.16964,-8.16964 -23.16965,21.83035 z"
       style="fill:#000000;fill-rule:evenodd;" />
    <path
       id="k"
       d="m 859.76609,552.2104 8.9651,0 4.73509,-37.62818 -21.08693,-67.30141 -7.07107,0 -3.78807,43.62596 z"
       style="fill:#000000;fill-rule:evenodd;" />
    <path
       id="m"
       d="m 904.90728,552.27354 -30.93592,0 13.57392,-104.9296 29.42069,0 z"
       style="fill:#000000;fill-rule:evenodd;" />
    <path
       id="n"
       d="m 918.67061,552.27354 -8.71257,0 4.86136,-39.90103 33.0825,-64.9023 7.07106,0 -4.16687,39.39595 z"
       style="fill:#000000;fill-rule:evenodd;" />
    <path
       id="b"
       d="m 907.8746,408.76874 62.882,0 13.06885,10.66974 -22.09709,19.63484 -56.88422,0 z"
       style="fill:#000000;fill-rule:evenodd;" />
    <circle
       r="18.392857"
       cy="734.68365"
       cx="1000"
       id="dp"
       style="fill:#000000;fill-opacity:1;str" />
  </g>
</svg>
